RELEASE NAME........:  Texas Chainsaw 2013 CAM XViD BACKDOORS
FOLDER SIZE...........:  1.06 GiB
VIDEO..............:  NOGRP  Thanks
AUDIO...............:  NOGRP  Thanks

Video & Audio:

Format                                   : AVI
Format/Info                              : Audio Video Interleave
File size                                : 1.04 GiB
Duration                                 : 1h 26mn
Overall bit rate                         : 1 732 Kbps
Writing library                          : VirtualDub build 30091/release

Video
ID                                       : 0
Format                                   : MPEG-4 Visual
Format profile                           : Advanced Simple@L5
Format settings, BVOP                    : 2
Format settings, QPel                    : No
Format settings, GMC                     : No warppoints
Format settings, Matrix                  : Default (H.263)
Muxing mode                              : Packed bitstream
Codec ID                                 : XVID
Codec ID/Hint                            : XviD
Duration                                 : 1h 26mn
Bit rate                                 : 1 592 Kbps
Width                                    : 672 pixels
Height                                   : 272 pixels
Display aspect ratio                     : 2.471
Frame rate                               : 29.970 fps
Color space                              : YUV
Chroma subsampling                       : 4:2:0
Bit depth                                : 8 bits
Scan type                                : Progressive
Compression mode                         : Lossy
Bits/(Pixel*Frame)                       : 0.291
Stream size                              : 981 MiB (92%)
Writing library                          : XviD 63

Audio
ID                                       : 1
Format                                   : MPEG Audio
Format version                           : Version 1
Format profile                           : Layer 3
Mode                                     : Joint stereo
Mode extension                           : MS Stereo
Codec ID                                 : 55
Codec ID/Hint                            : MP3
Duration                                 : 1h 26mn
Bit rate mode                            : Constant
Bit rate                                 : 128 Kbps
Channel(s)                               : 2 channels
Sampling rate                            : 48.0 KHz
Compression mode                         : Lossy
Stream size                              : 78.9 MiB (7%)
Alignment                                : Split accross interleaves
Interleave, duration                     : 33 ms (1.00 video frame)
Interleave, preload duration             : 500 ms
Writing library                          : LAME3.99r
Encoding settings                        : -m j -V 4 -q 2 -lowpass 17 -b 128

Actors:		Alexandra Daddario, Tania Raymonde, Scott Eastwood

Plot: A young woman travels to Texas to collect an inheritance; little does she know that an encounter with a chainsaw-wielding killer is part of the reward. 	

Screens:
 
http://www.shotpix.com/images/68593019710257856413.jpg